<?xml version="1.0" standalone="no"?>
<!DOCTYPE svg PUBLIC "-//W3C//DTD SVG 20010904//EN"
 "http://www.w3.org/TR/2001/REC-SVG-20010904/DTD/svg10.dtd">
<svg version="1.0" xmlns="http://www.w3.org/2000/svg"
 width="600.000000pt" height="600.000000pt" viewBox="0 0 600.000000 600.000000"
 preserveAspectRatio="xMidYMid meet">
<metadata>
Created by potrace 1.14, written by Peter Selinger 2001-2017
</metadata>
<g transform="translate(0.000000,600.000000) scale(0.100000,-0.100000)"
fill="#000000" stroke="none">
<path d="M2818 5995 c-2 -1 -43 -6 -92 -10 -50 -4 -97 -8 -106 -10 -10 -2 -41
-6 -71 -10 -30 -4 -56 -8 -59 -10 -3 -2 -27 -6 -53 -9 -57 -8 -254 -57 -347
-88 -672 -217 -1248 -663 -1625 -1256 -37 -60 -63 -91 -71 -88 -8 3 -99 55
-204 115 -104 60 -190 106 -190 103 0 -4 90 -58 199 -120 l199 -114 -73 -146
c-88 -175 -163 -363 -211 -532 -39 -138 -88 -402 -101 -548 -15 -167 -8 -490
13 -660 25 -201 106 -522 174 -687 56 -138 84 -198 137 -302 l63 -121 -85 -48
c-47 -26 -83 -49 -81 -52 2 -2 41 18 86 44 45 25 85 43 89 38 4 -5 46 -68 93
-139 168 -255 374 -482 613 -676 78 -64 265 -198 295 -212 8 -4 31 -17 50 -29
257 -159 661 -317 930 -364 14 -2 48 -9 75 -14 28 -5 68 -12 90 -16 22 -3 51
-7 65 -9 150 -26 599 -26 750 -1 14 2 45 7 70 10 87 13 116 18 205 37 682 150
1285 532 1727 1094 59 75 190 269 201 298 12 32 34 28 118 -21 227 -134 309
-180 309 -174 0 4 -19 18 -43 31 -23 13 -112 64 -198 114 l-156 91 73 146 c85
169 146 324 198 498 41 135 82 324 92 417 4 33 8 63 10 66 9 16 19 207 18 374
0 228 -8 330 -45 534 -51 289 -149 574 -296 859 -48 93 -52 103 -35 110 33 13
380 217 376 221 -2 2 -41 -18 -86 -44 -257 -150 -302 -175 -309 -175 -4 0 -33
41 -65 92 -175 276 -406 535 -654 732 -47 37 -93 74 -102 81 -48 39 -235 159
-323 207 -282 156 -622 278 -910 327 -33 6 -73 13 -90 15 -16 3 -55 8 -85 11
-30 3 -71 8 -90 12 -36 5 -457 13 -462 8z"/>
<path d="M108 1336 c-58 -33 -105 -62 -103 -64 2 -2 50 22 107 54 117 66 113
63 107 68 -2 2 -52 -24 -111 -58z"/>
</g>
</svg>
