<?xml version="1.0" standalone="no"?>
<!DOCTYPE svg PUBLIC "-//W3C//DTD SVG 20010904//EN"
 "http://www.w3.org/TR/2001/REC-SVG-20010904/DTD/svg10.dtd">
<svg version="1.0" xmlns="http://www.w3.org/2000/svg"
 width="300.000000pt" height="300.000000pt" viewBox="0 0 300.000000 300.000000"
 preserveAspectRatio="xMidYMid meet">
<metadata>
Created by potrace 1.10, written by Peter Selinger 2001-2011
</metadata>
<g transform="translate(0.000000,300.000000) scale(0.100000,-0.100000)"
fill="#000000" stroke="none">
<path d="M1310 2990 c-436 -61 -814 -294 -1053 -650 -27 -41 -51 -77 -53 -79
-2 -2 -38 17 -81 41 -108 62 -126 72 -119 60 5 -9 171 -105 226 -131 23 -11
24 -11 6 3 -25 21 -18 36 77 163 219 289 532 486 901 565 134 29 405 31 544 5
389 -73 733 -292 960 -612 39 -55 61 -96 59 -107 -3 -10 -2 -16 1 -14 92 49
214 121 218 128 7 12 -11 2 -119 -60 -43 -24 -79 -43 -81 -41 -2 2 -26 38 -53
79 -218 325 -552 548 -942 631 -110 23 -384 34 -491 19z"/>
<path d="M1385 2919 c-339 -25 -645 -167 -890 -413 -337 -338 -479 -784 -399
-1253 34 -200 156 -480 260 -598 20 -23 23 -24 10 -5 -118 187 -139 230 -161
335 -30 147 -12 285 54 420 38 76 104 167 119 162 4 -1 27 19 51 46 26 28 70
60 110 80 61 30 73 32 166 32 90 0 106 -3 158 -28 69 -34 145 -107 171 -164
l18 -42 -41 -71 c-22 -40 -38 -77 -34 -82 3 -6 2 -8 -4 -5 -6 4 -13 30 -16 58
-15 127 -122 219 -254 219 -145 0 -252 -109 -253 -256 0 -79 37 -154 99 -202
l44 -33 -94 3 -94 3 -35 70 c-33 65 -35 76 -35 165 0 78 4 104 23 144 12 27
21 51 18 53 -5 6 -39 -49 -39 -64 0 -7 -4 -13 -7 -13 -4 0 -7 -53 -6 -117 1
-111 3 -121 31 -173 16 -30 31 -58 33 -62 2 -5 -27 -8 -64 -8 l-67 0 6 88 c3
48 15 118 26 157 22 80 21 101 -2 28 -58 -179 -53 -414 10 -581 9 -23 18 -41
20 -39 2 2 -4 24 -13 48 -22 62 -44 182 -44 240 l0 49 64 0 65 0 -32 -62 c-30
-58 -32 -67 -33 -179 -1 -81 2 -117 9 -112 6 4 8 0 4 -10 -4 -10 -1 -17 5 -17
6 0 8 -3 5 -6 -3 -4 4 -25 17 -48 13 -22 22 -46 20 -51 -2 -6 34 -52 81 -102
184 -198 420 -337 680 -403 627 -159 1261 110 1593 675 138 235 208 555 182
825 -34 354 -166 636 -415 886 -249 249 -536 382 -895 413 -58 5 -112 8 -120
8 -8 -1 -56 -4 -105 -8z m265 -25 c135 -31 272 -119 358 -229 41 -51 95 -150
106 -195 7 -25 7 -25 -11 3 -10 15 -21 27 -26 27 -4 0 -5 5 -2 10 3 6 1 10 -5
10 -6 0 -8 5 -5 11 12 18 -174 190 -262 242 -149 89 -258 117 -463 118 -55 1
-60 2 -30 9 64 14 271 11 340 -6z m210 -28 c257 -71 460 -188 639 -367 194
-195 330 -445 388 -719 14 -66 18 -130 18 -285 0 -234 -16 -316 -90 -471 -85
-175 -202 -265 -356 -272 l-76 -4 -42 72 c-24 39 -41 73 -38 76 2 2 21 -3 43
-12 22 -9 65 -17 96 -16 113 0 201 71 268 215 199 430 37 1064 -355 1387 -44
36 -113 99 -155 141 -105 106 -178 163 -270 209 -106 53 -117 51 -15 -3 107
-56 169 -103 248 -187 94 -99 112 -158 112 -370 0 -136 -3 -164 -23 -225 -57
-169 -165 -318 -299 -412 l-58 -41 -31 52 -31 53 43 27 c70 44 177 166 217
248 165 335 35 725 -300 893 -83 42 -59 46 67 11z m-415 -2 c105 -27 188 -89
242 -181 l24 -42 -42 -71 c-23 -39 -40 -73 -37 -75 2 -3 22 27 44 65 45 80 58
86 151 71 109 -17 208 -80 264 -169 15 -23 29 -39 31 -35 3 4 4 3 2 -3 -1 -6
4 -35 12 -64 17 -65 18 -132 3 -180 -6 -19 -12 -55 -14 -79 -6 -69 -76 -201
-148 -277 -55 -60 -144 -131 -151 -122 -2 1 -8 13 -15 25 -10 19 -6 24 33 47
84 49 244 214 230 237 -3 5 -1 9 4 9 8 0 42 63 42 78 0 4 -15 -16 -34 -44 -70
-103 -180 -164 -301 -164 l-70 0 -39 70 c-22 39 -42 68 -44 65 -3 -2 0 -10 5
-17 5 -7 24 -38 41 -69 l31 -55 -20 -40 c-31 -59 -97 -122 -164 -157 -56 -30
-66 -32 -165 -32 -77 0 -115 5 -143 17 l-38 18 28 50 c25 45 31 50 53 44 126
-34 209 -16 284 62 34 35 52 73 75 160 l11 41 42 -20 c29 -14 60 -21 102 -20
99 1 172 44 224 132 36 61 38 173 5 237 -31 59 -93 110 -154 128 -65 20 -102
20 -154 0 -75 -29 -80 -27 -83 24 -6 97 -92 195 -195 223 -54 15 -222 5 -301
-16 -258 -71 -531 -273 -689 -511 -109 -165 -172 -322 -203 -513 -9 -53 -27
-132 -40 -176 -34 -117 -44 -187 -42 -294 l1 -96 7 125 c8 126 14 164 51 277
18 55 30 72 106 143 69 65 104 90 186 130 125 59 214 80 350 80 118 0 224 -23
325 -70 l63 -29 -27 -48 c-15 -27 -29 -50 -30 -52 -2 -2 -29 8 -60 23 -79 38
-174 57 -274 57 -195 0 -350 -68 -487 -215 -125 -134 -179 -284 -171 -477 l5
-111 -18 43 c-11 27 -16 60 -13 84 3 31 2 34 -4 15 -7 -21 -11 -15 -25 45 -33
142 -39 218 -34 385 3 95 12 197 22 240 91 413 359 767 726 959 221 115 442
158 604 115z m173 -18 c75 -26 162 -67 162 -76 0 -4 -14 -32 -31 -64 l-31 -58
-22 42 c-29 59 -124 144 -188 169 l-53 22 48 -6 c26 -4 78 -17 115 -29z m351
-210 c29 -28 63 -64 74 -81 l22 -30 -42 33 c-65 51 -144 82 -222 89 l-70 6 32
57 31 58 61 -41 c33 -23 84 -64 114 -91z m-559 103 c69 -15 129 -62 163 -129
24 -46 28 -65 25 -117 -3 -54 -1 -60 12 -48 38 33 103 56 160 56 141 1 245
-101 244 -241 -1 -79 -25 -132 -86 -184 -72 -62 -177 -75 -264 -31 -43 21 -56
36 -100 112 l-52 88 252 5 251 6 -260 2 -260 2 -19 -33 c-10 -17 -68 -118
-128 -224 l-111 -192 -41 21 c-117 60 -296 96 -415 84 -199 -20 -388 -110
-514 -245 l-48 -51 7 37 c56 326 160 538 364 743 110 111 196 174 324 239 182
93 361 129 496 100z m1000 -339 c191 -192 312 -427 356 -695 20 -125 14 -366
-11 -465 -25 -95 -96 -239 -140 -284 -90 -91 -224 -102 -324 -28 l-33 25 7
-41 c9 -55 -16 -136 -56 -186 -42 -50 -119 -86 -184 -85 -55 0 -121 20 -118
34 1 9 240 425 249 434 2 2 83 -42 180 -98 97 -56 179 -100 181 -97 2 2 -77
50 -177 107 l-180 104 -121 210 c-67 116 -126 215 -132 220 -14 13 40 -85 146
-267 66 -114 82 -148 70 -152 -8 -3 -54 -6 -103 -6 -82 0 -91 2 -136 32 -70
48 -104 117 -101 207 3 92 38 150 127 208 130 86 244 207 296 315 9 20 22 34
27 31 6 -3 7 -1 3 5 -3 6 3 34 14 62 33 82 53 224 46 315 -6 75 -25 175 -42
219 -7 18 -4 18 27 -4 19 -13 77 -67 129 -120z m-855 -250 c45 -77 47 -83 43
-144 -9 -148 -143 -250 -290 -222 -68 13 -68 11 42 201 142 247 141 245 150
245 4 0 29 -36 55 -80z m506 -157 c-21 -41 -101 -121 -174 -175 -43 -32 -83
-58 -87 -58 -5 0 -23 25 -40 55 -17 30 -34 55 -36 55 -6 0 24 -59 48 -93 l20
-27 -79 -36 c-77 -36 -207 -74 -247 -74 -12 0 4 11 35 24 92 37 147 85 192
164 l24 43 69 3 c91 5 172 37 231 91 54 50 57 52 44 28z m-1088 -238 c67 -14
187 -62 187 -74 0 -4 -6 -15 -13 -25 -12 -16 -16 -15 -72 12 -68 34 -186 72
-219 71 -11 0 11 -9 51 -19 39 -10 106 -35 148 -54 l77 -36 -31 -53 c-17 -30
-31 -58 -31 -63 0 -9 56 81 63 101 8 23 257 -177 257 -207 0 -4 -22 7 -50 26
-64 44 -136 68 -212 69 -60 2 -61 2 -86 42 -41 67 -104 126 -167 156 -33 16
-67 29 -75 30 -8 1 -4 5 10 10 16 5 -6 7 -65 5 -94 -4 -99 -1 -24 13 69 14
177 12 252 -4z m835 -39 c10 -23 8 -25 -48 -50 -90 -41 -198 -59 -315 -53 -79
4 -92 3 -60 -5 62 -15 240 -3 309 21 l59 21 -65 -67 c-35 -38 -73 -82 -83
-100 l-18 -31 -33 21 c-19 12 -34 24 -34 27 0 3 29 23 65 44 36 21 65 40 65
43 0 4 -83 -40 -132 -71 -13 -8 -23 -8 -35 0 -50 31 -133 75 -133 71 0 -3 29
-22 65 -43 36 -21 65 -41 65 -44 0 -3 -15 -15 -34 -27 l-33 -21 -18 31 c-23
40 -113 135 -140 149 -11 6 14 -25 56 -69 51 -55 88 -106 113 -158 21 -42 36
-78 34 -81 -3 -2 -11 7 -18 21 -7 14 -17 25 -22 25 -5 0 -7 4 -3 9 3 5 0 13
-6 17 -8 5 -9 3 -4 -6 5 -8 4 -11 -3 -6 -6 4 -9 12 -6 20 7 17 -109 134 -184
185 -34 23 -62 44 -62 47 0 3 5 14 11 25 10 20 10 20 45 -1 19 -12 34 -19 34
-16 0 3 17 -1 38 -8 88 -31 337 11 462 79 56 30 55 30 68 1z m52 -93 l23 -42
-36 -34 c-52 -49 -77 -108 -77 -187 0 -82 22 -132 83 -187 l47 -43 -90 0 -89
0 -32 66 c-78 158 -33 360 102 459 36 28 37 28 69 -32z m-1060 -44 c93 -42
143 -116 144 -214 1 -55 -3 -68 -49 -146 l-50 -86 -123 213 c-68 118 -125 214
-128 214 -7 0 141 -266 227 -406 l18 -30 -180 -103 c-98 -57 -182 -108 -186
-114 -3 -5 -2 -8 3 -5 5 3 91 53 192 112 l183 106 254 0 253 0 7 -67 c12 -109
41 -207 92 -306 99 -193 331 -373 521 -403 23 -4 42 -10 42 -14 0 -4 -49 -24
-108 -43 -326 -109 -685 -85 -982 65 -131 67 -197 114 -295 212 -185 186 -223
346 -112 473 23 25 59 54 81 64 l39 17 -34 15 c-112 47 -172 174 -138 294 16
58 96 143 149 160 57 18 130 15 180 -8z m880 -29 c-12 -17 -23 -41 -25 -53 -2
-12 -8 -48 -15 -79 -14 -73 -1 -150 38 -230 l29 -58 -68 0 -68 0 5 53 c8 80
34 207 50 246 8 19 12 36 10 38 -7 7 -43 -98 -54 -157 -6 -30 -14 -83 -17
-117 -6 -58 -9 -63 -31 -63 -21 0 -24 5 -24 33 0 96 65 263 141 365 42 55 66
73 29 22z m-408 -92 c111 -51 202 -169 215 -278 l6 -50 -62 0 c-60 0 -61 1
-61 28 -1 68 -76 163 -156 197 -47 19 -144 19 -191 0 -20 -8 -38 -14 -40 -12
-2 2 16 37 39 77 l42 72 76 -4 c53 -3 92 -12 132 -30z m272 11 c20 -12 36 -23
36 -25 0 -3 -9 -23 -21 -45 -11 -23 -28 -73 -38 -111 -19 -75 -24 -77 -35 -14
-6 30 -10 36 -17 25 -8 -10 -9 -8 -4 9 4 14 -3 43 -19 79 -15 31 -24 58 -21
61 13 13 61 41 72 41 6 1 28 -8 47 -20z m-335 -125 c3 -5 13 -10 21 -12 50
-11 130 -121 130 -179 l0 -23 -234 0 c-129 0 -241 3 -249 6 -11 4 -5 23 32 87
41 73 53 85 101 110 49 25 63 28 124 24 37 -2 71 -8 75 -13z m285 -256 c3 -18
8 -55 11 -83 16 -121 85 -253 186 -354 223 -223 564 -260 826 -90 63 42 93 69
75 69 -5 0 -15 -7 -22 -15 -47 -56 -235 -131 -353 -141 -69 -6 -214 3 -204 12
2 2 44 6 93 8 136 6 283 60 424 156 60 41 158 134 192 184 12 17 -10 -3 -50
-45 -64 -68 -206 -179 -215 -168 -2 2 -16 25 -31 52 -15 26 -29 47 -32 47 -3
0 8 -25 25 -55 l32 -56 -76 -35 c-76 -35 -209 -74 -249 -74 -12 1 -2 8 23 16
85 30 160 93 214 181 20 32 31 40 46 36 33 -8 150 16 200 42 52 27 143 99 136
109 -3 3 -2 4 2 1 4 -3 19 16 35 42 44 76 33 40 -22 -66 -27 -53 -74 -126
-104 -163 -30 -36 -52 -68 -49 -71 10 -10 -181 -199 -267 -263 -147 -111 -366
-209 -560 -251 -119 -25 -439 -26 -557 0 -272 58 -512 185 -688 362 -195 195
-252 394 -166 570 l32 65 97 0 97 0 -31 -19 c-74 -45 -114 -124 -114 -224 0
-76 57 -188 145 -284 189 -207 479 -343 796 -373 186 -18 415 16 580 85 35 14
114 39 174 54 61 16 136 40 168 55 60 26 192 109 203 127 3 5 -27 -13 -68 -40
-90 -61 -191 -105 -304 -132 -97 -23 -142 -18 -264 28 -280 105 -499 402 -500
681 l0 52 55 0 c53 0 54 0 59 -32z m75 -68 c13 -107 49 -228 81 -272 11 -15
20 -31 20 -35 0 -10 39 -61 40 -52 0 4 -12 33 -27 65 -51 112 -42 257 23 356
l24 37 209 0 209 0 -127 -219 c-69 -121 -129 -220 -133 -220 -12 0 -68 62 -85
93 -9 18 -18 61 -20 97 -4 57 -1 72 24 120 17 33 45 68 71 87 24 18 37 33 30
33 -26 0 -86 -60 -112 -112 -30 -60 -35 -156 -12 -212 20 -49 81 -112 130
-135 96 -47 238 -15 306 67 32 39 60 110 60 153 0 15 5 31 12 35 7 4 8 3 4 -5
-4 -6 11 -43 34 -83 l41 -72 -18 -40 c-25 -56 -102 -129 -170 -163 -53 -25
-68 -28 -163 -28 -96 0 -110 2 -159 28 -29 16 -74 48 -100 72 -25 24 -50 43
-56 43 -17 1 -90 100 -124 168 -36 72 -71 198 -71 256 0 33 3 38 23 38 23 0
25 -5 36 -100z m141 91 c0 -6 -4 -12 -9 -15 -18 -11 -50 -95 -61 -157 -7 -43
-8 -81 -1 -114 5 -27 8 -52 6 -53 -8 -8 -53 157 -60 213 -3 33 -8 77 -11 98
l-6 37 71 0 c39 0 71 -4 71 -9z"/>
<path d="M1490 2471 c0 -127 4 -201 10 -201 6 0 10 71 10 194 0 119 -4 197
-10 201 -7 4 -10 -63 -10 -194z"/>
<path d="M410 2128 c24 -24 360 -214 360 -204 0 3 -321 191 -365 214 -5 3 -3
-2 5 -10z"/>
<path d="M2430 2044 c-146 -85 -230 -139 -160 -104 109 55 349 201 330 200 -3
0 -79 -43 -170 -96z"/>
<path d="M1805 1322 c19 -20 315 -187 315 -178 0 4 -250 150 -300 176 -14 7
-20 8 -15 2z"/>
<path d="M1490 2024 c0 -114 3 -173 10 -169 6 4 10 73 10 176 0 106 -4 169
-10 169 -6 0 -10 -65 -10 -176z"/>
<path d="M1490 436 c0 -124 4 -196 10 -196 14 0 14 377 0 385 -7 4 -10 -62
-10 -189z"/>
<path d="M1490 1409 c0 -37 4 -58 10 -54 6 3 10 31 10 61 0 30 -4 54 -10 54
-6 0 -10 -27 -10 -61z"/>
<path d="M1045 1244 c-143 -82 -210 -126 -135 -89 52 26 273 155 285 166 19
19 -5 6 -150 -77z"/>
<path d="M146 2149 c-55 -118 -90 -224 -118 -353 -18 -84 -22 -133 -22 -296 0
-212 14 -309 70 -476 31 -94 112 -270 120 -262 3 3 -10 37 -30 75 -47 95 -102
254 -128 377 -31 146 -31 426 0 572 26 123 81 282 128 377 20 38 33 72 30 75
-3 3 -26 -37 -50 -89z"/>
<path d="M2800 2235 c0 -3 16 -37 36 -77 48 -95 109 -282 131 -398 24 -130 24
-390 0 -520 -22 -117 -83 -303 -132 -400 -20 -40 -34 -75 -31 -78 8 -8 89 168
120 262 56 167 70 264 70 476 0 212 -14 309 -70 476 -40 119 -124 295 -124
259z"/>
<path d="M122 711 c-57 -32 -109 -64 -115 -71 -15 -16 8 -4 116 58 43 24 79
43 81 41 2 -2 26 -38 53 -79 219 -326 549 -546 947 -632 146 -32 446 -32 592
0 398 86 728 306 947 632 27 41 51 77 53 79 2 2 38 -17 81 -41 108 -62 126
-72 119 -60 -4 7 -126 79 -218 128 -3 2 -4 -4 -1 -14 2 -11 -20 -52 -59 -107
-294 -414 -774 -652 -1273 -632 -467 19 -892 250 -1163 632 -39 55 -61 96 -59
107 3 10 4 18 4 18 -1 0 -48 -27 -105 -59z"/>
</g>
</svg>
